<svg xmlns="http://www.w3.org/2000/svg" viewBox="-206.991 0.016 600 600">
  <path fill="#23A9E1" d="M-200.744 3.98l292.26 344.354 291.09-342.27z"/>
  <path fill="#491213" d="M93.516-.181h-300.507v132.566L91.516 495.464l2-2.502L393.009 136.54V-.18H93.516zm0 336.695l-2 2.414-276.624-328.623H372.11L93.517 336.514z"/>
  <path fill="#491213" d="M91.516 338.928l2-2.414 162.743-190.55c-40.799 5.601-70.018 35.864-109.79 29.248-20.045-3.328-20.644-14.835-26.378-26.298-4.404-8.809-11.43-7.688-20.576-11.27-8.512-3.334-13.44-10.259-30.464-6.262-14.921 3.499-16.57 26.664-35.127 25.335-9.97-.714-10.691-14.736-25.047-32.688-37.19-44.68-71.752-38.496-95.883 2.803L91.516 338.928z"/>
  <path fill="#23A9E1" d="M67.795 418.236l23.721-38.36 23.63 38.36-23.63 38.447z"/>
  <path fill="#FFF" d="M-69.6 190.138c3.025 3.646 5.255 7.576 4.753 12.487-.345 3.418-5.52 9.149-1.59 10.895 4.409-5.576 8.823-11.149 13.232-16.725-3.555-.89-31.663-34.513-32.118-38.196-6.213 3.412-12.431 6.824-18.644 10.233.968 3.902 7.636.032 10.944.274 4.888.351 8.409 3.302 11.527 6.797-10.202 8.55-35.006 29.609-37.617 30.039-1.337.213-6.426-3.548-6.5-.33-.036 1.545 5.03 5.983 5.987 7.142 4.386 5.216 8.766 10.44 13.157 15.655 3.654-1.665-.65-4.319 1.21-7.336 1.366-2.208 28.927-25.18 35.658-30.935zM-100.723 148.946c2.617-.562 3.683 2.558 5.654-.332-4.812-5.742-9.636-11.477-14.448-17.214-2.19-2.608-4.962-5.406-4.167.106.524 3.718-36.078 33.427-38.32 34.346-2.83 1.165-4.472-2.46-6.547.574 4.317 5.129 8.622 10.261 12.944 15.39 1.453 1.724 2.813 3.611 4.409 5.205 2 2.003 1.228-3.966 1.32-3.452-.536-3.026 3.112-5.594 5.048-7.248 9.118-8.03 31.854-27.076 34.107-27.375zM-152.482 143.534c-10.431 3.086-21.544-.968-24.828-12.05-3.205-10.83 3.625-22.175 12.224-28.336 8.489-6.088 21.18-5.723 25.807 4.945 2.04 4.717.928 10.068-.559 14.768-.945 2.986-3.521 5.902.335 7.605 5.071-6.466 10.155-12.924 15.232-19.39-6.23-3.738-8.962-9.933-13.579-15.317-5.204-6.319-12.177-12.27-20.545-13.476-16.938-2.398-32.897 15.082-34.2 30.951-.807 8.599 2.208 16.808 7.355 23.612 4.426 5.867 11.019 9.578 14.367 16.255 1.545.56 15.964-6.097 19.394-7.408-.306-.655-.525-1.623-1.003-2.159-4.49 1.331 0 0 0 0zM79.448 358.403c-6.79-4.53-23.756-27.676-26.99-31.52-.633-.767-1.29-1.539-1.941-2.311-.064-.086-1.672 1.325-1.453 1.124-1.02.859.796 3.383-.306 5.1-4.679 7.32-33.98 29.404-35.501 30.47-3.279 2.266-6.87-.939-8.789 1.862 4.242 5.043 16.408 20.91 17.82 21.14 2.824.46.87-4.807 1.245-5.902.726-2.179 15.537-14.43 20.944-18.95 1.982-1.66 4.057 2.513 5.239 4.265 1.93 2.86 2.8 5.902 1.757 9.256-.686 2.185-4.23 5.43-1.475 6.928 3.653-4.265 13.935-16.253 15.422-17.994 1.487-1.728-3.342-.218-2.766-.512-2.185 1.124-4.242 1.389-6.276-.167-.565-.415-6.426-6.386-5.844-6.882 2.547-2.127 5.66-5.682 8.956-6.489 5.089-1.256 9.336 8.944 10.086 12.564.714 3.412.61 6.996-.45 10.328-.732 2.282-2.876 4.109.104 5.486 4.207-5.746 8.396-11.48 12.58-17.232a4.132 4.132 0 0 1-2.362-.564c-.75-.502.818.414 0 0zM19.113 334.024c13.013-10.95 14.644-29.819 4.535-43.311-11.019-14.69-31.697-18.273-46.054-6.21-13.008 10.942-14.69 29.787-4.472 43.227 11.746 15.469 30.678 17.221 45.99 6.294 6.819-5.752-.587.415 0 0zm-2.744-28.05c-3.82 8.91-12.99 18.08-22.027 21.641-10.73 4.219-18.293-4.882-13.93-15.065 3.839-8.945 13.002-18.039 22.056-21.635 10.928-4.34 18.097 4.99 13.901 15.06-2.253 5.25.415-.998 0 0zM-18.919 247.808c2.801.355 5.464 3.245 7.486.248-4.374-5.187-8.754-10.376-13.145-15.563-3.51 1.587.276 3.241-1.148 5.731-1.44 2.519-15.105 4.608-18.741 5.253 1.32-3.8 5.285-15.433 6.829-16.733 3.21-2.626 5.21 2.55 7.573-.83-5.4-6.397-10.795-12.8-16.19-19.198-1.832-2.16-3.301-6.068-5.785-4.014.225-.184.034 8.689-.525 10.228-.507 1.391-5.52 21.47-11.365 26.38-2.91 2.444-13.204 11.414-15.947 12.374-3.192 1.115-4.87-3.527-7.198-.222 4.898 5.818 9.803 11.63 14.702 17.449.738.875 3.55 5.094 4.524 5.27 3.077.556.351-5.27.668-6.409.888-2.541 14.754-16.044 20.639-16.872 8.621-1.21 18.88-4.143 27.623-3.092 2 .248-2.075-.253 0 0z"/>
  <path fill="#DC6243" d="M-55.861 134.716c-23.86-.985-13.879-23.335 2.328-28.375 15.411-4.798 47.737 10.135 58.088 20.053-16.42 5.046-37.686 4.32-55.748 5.158-1.337-18.413-5.654-11.99-4.668 3.164zM-49.873 163.34c-12.04-9.32-8.236-31.079 10.402-24.468 23.641 12.298-5.048 19.113-10.402 24.467 0 0 .247-.247 0 0zM.22 208.774c-50.872-.418-16.477-78.62.83-73.893 19.907 6.333 17.677 74.49-.83 73.893zM36.252 183.225c-4.956 14.763-13.929 17.518-12.932-.412 1.141-20.672 14.627-15.71 29.093-23.629 12.039-6.604 18.523-30.77 39.19-16.318 9.22 6.451 19.785 1.057 22.73 10.817-.15-.495-26.823 60.834-11.988 60.834-29.277 0-16.361-34.948-5.158-58.419-10.898 5.221-28.574 39.47-14.056 45.106-7.562 9.95-30.655 23.28-42.694 13.561-9.158-7.371-4.08-19.624-4.185-31.54zM60.475 239.899c-20.592 6.175-47.933-7.121-14.811-13.81 20.552-4.155 42.412 4.591 14.811 13.81.83-.248-.754.256 0 0zM86.266 239.068c-4.346-9.786 3.314-21.453 15.814-12.978 10.899 7.388-5.02 18.33-15.814 12.978zM68.878 266.617c-14.23-4.41-62.185-3.311-30.793-16.313 9.677-4.006 59.926.58 30.793 16.313zM87.851 264.533c-.04-5.665-3.02-15.811 7.994-11.486 13.185 5.19-7.994 15.648-7.994 11.486 0 0 0-.997 0 0zM130.453 286.175c-8.478-7.242-17.06-7.642-24.955 0-10.593-19.434-49.092-12.925-67.079-15.645 9.671 23.773 87.722 28.211 92.034 15.645z"/>
  <g>
    <path fill="#DC6243" d="M119.226 300.482c-18.598-.865-39.369-3.326-56.93.495 10.98 2.75 37.75 10.593 12.818 17.221 8.945 12.794 23.45 11.976 32.954.749-3.86-1.902-5.959-4.241-9.157-6.236 9.866-1.792 19.088-7.48 20.315-12.23z"/>
  </g>
  <g>
    <path fill="#DC6243" d="M140.446 277.599c-31.208-18.365-23.312-32.027 2.092-44.77 13.302-6.673 43.219-30.735 55.748-22.72a282074.187 282074.187 0 0 0-57.84 67.49z"/>
  </g>
  <g>
    <path fill="#F49774" d="M118.229 234.66c-26.436-27.154 39.472-24.658 50.083-34.205 7.74 2.579 63.55-48.884 77.14-45.685-9.768 11.454-30.804 48.016-45.88 48.016-11.596 0-23.313-1.723-32.298 6.532-13.123 12.086-34.867 18.236-49.045 25.342z"/>
  </g>
  <g>
    <path fill="#F4B1A4" d="M126.885 201.458c-14.477 7.783-28.165-23.059-3.17-20.053 16.604 1.993 33.416-1.401 49.265 1.33-11.371 13.522-27.773 20.97-46.095 18.723z"/>
  </g>
  <g>
    <path fill="#FFF" d="M201.433 309.357c1.13 3.827 1.763 7.86 1.268 11.855-.628 5.152-5.775 17.261-12.823 13.809-6.9-3.383-12.95-10.195-18.811-15.06 4.73-5.521 8.892-10.321 16.84-7.641 2.184.725 4.062-.214 1.763-1.545-2.386-1.383-18.373-11.596-19.243-10.616-1.597 1.833 3.118 5.118 1.302 8.691-1.349 2.64-3.596 4.922-5.498 7.192-4.248-3.584-11.348-7.394-6.236-13.312 3.199-3.897 7.377-6.917 12.38-7.92 3.337-.674 10.863 2.294 11.837-1.325-6.414-3.077-12.817-6.16-19.226-9.236 1.043 4.718-19.762 26.704-24.379 32.243-.668.813-3.884 3.596-3.918 4.708-.052 2.53 3.67.57 3.878.496 2.864-1.066 40.222 30.148 41.15 32.286.587 1.66-1.303 3.388-.173 4.317-.064-.058 1.349 1.28 1.493 1.089 2.31-2.76 26.689-35.265 31.715-36.69-4.686-7.169-9.371-14.344-13.976-21.548-3.481 1.522-.11 5.596.657 8.207zM165.072 348.916c-12.258-7.907-33.023 7.55-36.147 9.037-6.131 2.899-10.558-3.205-7.382-8.864 2.766-4.9 8.224-7.285 13.636-7.607 1.63-.104 7.964 1.163 8.61.15.767-1.194 1.343-1.303.248-2.04-5.055-3.413-10.103-6.819-15.152-10.23-1.037 6.23-8.172 10.194-12.253 14.402-4.852 5.043-8.967 11.393-8.967 18.626 0 6.697 4.005 12.645 9.895 15.7 6.703 3.492 13.676.685 19.619-3.015 3.7-2.311 7.4-5.054 11.353-6.91 5.879-2.754 13.595-.369 11.526 7.493-1.665 6.333-7.976 12.166-14.195 13.808-3.636.968-7.492.646-11.047-.53-2.548-.836-5.862-4.334-7.256-.657 6.852 4.996 13.693 9.982 20.545 14.973.611-4.484 3.084-6.432 6.41-9.227 4.339-3.81 8.488-7.787 11.768-12.57 6.84-9.993 9.077-23.975-1.21-32.54z"/>
    <path fill="#FFF" d="M165.072 348.916c5.458 3.527-3.486-2.916 0 0zM337.595 128.703c-.04.023-.04.023 0 0z"/>
    <path fill="#FFF" d="M381.609 115.66c-4.305 4.302-49.69-13.814-53.01-16.312-1.712-.684-1.77-7.795-4.161-4.917-2.38 2.882-4.778 5.76-7.176 8.633-2.466 2.983-4.939 5.957-7.41 8.93-1.534 1.854-3.171 2.704-.226 4.25 4.94-2.471 31.97 43.352 29.554 49.934-4.276 2.219-40.81-29.845-41.79-31.957-.304-.862 1.615-6.026-1.244-5.576-1.348.21-4.386 5.287-5.245 6.325-1.752 2.106-3.492 4.218-5.244 6.328 1.96 2.861 3.048-.127 5.66.248 2.258.452 10.88 7.852 13.22 9.817-4.276.162-15.843.776-17.312.669-5.332.66-2.49-3.913-5.989-5.495-4.483 5.44-8.973 10.878-13.44 16.313-2.604 3.161-5.221 6.325-7.826 9.483-.317.383-.277.187.294.66 1.948 1.61.617.991 3.354.037 2.985-1.045 38.706 29.1 39.991 30.629 2.225 2.654-.91 5.754 2.427 7.205 3.538-4.297 7.065-8.6 10.61-12.89.536-.649.83-.588.12-1.167-2.518-2.084-2.806 1.25-5.912.907-3.147-.524-25.935-19.88-34.787-27.205 10.748-.4 43.028-1.6 48.382-1.795 1.776-.064 6.726 5.29 6.305 7.178-.478 2.23-2.731 3.294.317 4.685 2.83-3.394 5.815-6.78 8.593-10.232l1.343-1.666c.45-.306.859-.856 1.24-1.561l.99-1.249c2.508-2.86 10.622-11.837 9.648-12.687-2.72-2.36-4.04 2.749-7.66-.317-2.051-1.47-7.215-10.553-8.518-12.76-1.555-2.651 3.591-5.294 5.689-6.604 4.582-2.845 19.163-6.983 20.552 2.054.236 1.521-1.603 3.245-.496 4.155.26.216 1.204 1.427 1.59.96.963-1.162 13.936-16.777 19.48-23.422-.582-.484-1.221-1.323-1.913-1.588zm-43.518 12.723c.455-.288.904-.577 0 0-.3.19-.438.279-.496.32.08-.046.277-.176.485-.306a33.718 33.718 0 0 0-5.655 4.49c-3.077-5.294-6.16-10.594-9.232-15.893 6.95 2.896 13.883 5.813 20.8 8.74-2.093.58-4.081 1.493-5.902 2.649zM280.58 194.547c-14.017-11.679-33.226-8.287-44.77 4.908-11.232 13.647-10.103 33.42 3.568 44.942 13.809 11.365 33.467 8.486 44.688-4.994 11.204-13.59 10.438-33.45-3.487-44.856zm-1.66 39.032c-.11.118-.145.158-.15.158-7.274 7.625-19.82.568-26.592-4.313-6.76-4.893-18.356-15.167-10.95-24.22 6.23-7.594 18.436-1.363 24.736 2.844 7.077 4.74 20.131 15.321 13.428 24.883.438-.533.744-.873-.473.648z"/>
    <path fill="#FFF" d="M280.58 194.547c6.91 5.66-1.493-1.247 0 0zM278.758 233.737c.052-.057.104-.106.15-.158.173-.219.334-.43.473-.648-.289.36-.652.806-.623.806zM241.678 248.39c.656.557 1.608 1.323-.375-.334-16.73-12.552-36.55-8.875-49.581 6.827a14406.258 14406.258 0 0 0-17.475 21.053c2.07 3.02 4.502-.697 7.51 1.037 2.576 1.476 36.85 30.102 37.409 31.67.968 2.702-1.504 3.233.853 5.163 1.014.842 26.77-30.954 29.122-36.539 4.075-10.356.824-21.704-7.463-28.877zm-7.781 39.862c-1.418 1.746-.26.317-3.925 3.838-1.804 1.73-37.99-27.591-36.539-29.179 4.928-5.418 15.146-9.184 21.106-7.657 12.926 3.306 30.77 19.241 19.358 32.998z"/>
  </g>
</svg>
